<svg xmlns="http://www.w3.org/2000/svg" viewBox="0 0 457.254 457.254"><circle  fill="#fff" fill-opacity="1" cx="333.6" cy="69.265" r="47.409"/><path  fill="#fff" fill-opacity="1" d="M454.413 260.338L381.45 135.101c-3.495-5.999-10.592-10.239-15.94-10.239h-62.106c-5.348 0-12.445 4.24-15.94 10.239l-54.973 94.358-61.025-104.746c-3.884-6.668-10.897-10.364-18.098-10.351-.132-.008-.263-.02-.397-.02H94.3c-.134 0-.265.012-.397.02-7.201-.014-14.213 3.682-18.098 10.351L2.841 249.949c-5.804 9.961-2.433 22.741 7.528 28.545a20.777 20.777 0 0010.489 2.841c7.185 0 14.178-3.714 18.056-10.369l32.182-55.239v23.65L56.693 343.162c-1.213 8.742 5.578 16.541 14.404 16.541v63.527c0 11.944 9.288 22.117 21.224 22.542 12.532.446 22.833-9.581 22.833-22.014v-64.056h17.404v63.527c0 11.945 9.288 22.118 21.226 22.542 12.532.445 22.83-9.581 22.83-22.014v-64.056c8.826 0 15.617-7.799 14.404-16.541l-14.404-103.787v-22.89l31.74 54.481c1.08 1.852 8.574 14.946 13.673 17.917a20.787 20.787 0 0010.489 2.841c7.185 0 14.178-3.713 18.056-10.369l31.275-53.683-.301 184.769c0 12.166 9.861 22.028 22.027 22.028.051 0 .1-.007.151-.008.051 0 .1.008.152.008 12.166 0 22.029-9.862 22.029-22.028l-.302-111.487c0-4.635 3.497-8.682 8.123-8.981a8.702 8.702 0 019.281 8.683V411.91c0 11.944 9.288 22.117 21.224 22.543 12.532.446 22.833-9.581 22.833-22.014V227.671l31.275 53.683c3.878 6.656 10.871 10.369 18.056 10.369 3.568 0 7.184-.916 10.489-2.841 9.962-5.804 13.332-18.584 7.529-28.544zM49.541 105.344l11.735-1.046c6.748-.601 11.504-6.909 10.183-13.555-2.014-10.156-2.71-24.251 5.722-32.967-.009.367-.028.731-.028 1.099 0 26.182 21.226 47.408 47.408 47.408 26.181 0 47.407-21.226 47.407-47.408 0-.368-.019-.732-.029-1.099 8.433 8.717 7.736 22.811 5.721 32.967-1.318 6.646 3.436 12.954 10.184 13.555l11.734 1.046c6.203.553 11.701-3.961 12.365-10.153 1.615-15.035 1.334-37.592-7.169-46.549-12.551-13.221-28.074-13.355-38.102-11.532-7.886-15.229-23.777-25.644-42.11-25.644S90.337 21.88 82.45 37.11c-10.027-1.822-25.553-1.689-38.102 11.532-8.501 8.957-8.782 31.515-7.171 46.549.665 6.192 6.162 10.706 12.364 10.153z"/></svg>