<svg height="512" width="512" xmlns="http://www.w3.org/2000/svg"><path fill="#fff" fill-opacity="1" d="M136 358.237V512h30V358.237c17.422-6.213 30-22.707 30-42.237s-12.578-36.024-30-42.237V75c0-24.814 20.186-45 45-45h60c24.814 0 45 20.186 45 45v15h-45c-24.814 0-45 20.186-45 45v16h-30v30h270v-30h-30v-16c0-24.814-20.186-45-45-45h-45V75c0-41.353-33.647-75-75-75h-60c-41.353 0-75 33.647-75 75v198.763A44.941 44.941 0 00108.763 301H46v30h62.763A44.941 44.941 0 00136 358.237z"/><path fill="#fff" fill-opacity="1" d="M226 211h30v60h-30zM286 211h30v60h-30zM346 211h30v60h-30zM406 211h30v60h-30zM226 301h30v60h-30zM286 301h30v60h-30zM346 301h30v60h-30zM406 301h30v60h-30zM226 391h30v60h-30zM286 391h30v60h-30zM346 391h30v60h-30zM406 391h30v60h-30z"/></svg>